<?xml version="1.0" encoding="UTF-8"?>
<svg id="Layer_1" data-name="Layer 1" xmlns="http://www.w3.org/2000/svg" viewBox="0 0 200 50">
  <defs>
    <style>
      .cls-1 {
        fill: #00aded;
      }

      .cls-1, .cls-2, .cls-3, .cls-4, .cls-5, .cls-6, .cls-7, .cls-8, .cls-9, .cls-10, .cls-11, .cls-12, .cls-13, .cls-14, .cls-15, .cls-16, .cls-17, .cls-18, .cls-19, .cls-20, .cls-21, .cls-22, .cls-23, .cls-24, .cls-25, .cls-26, .cls-27, .cls-28, .cls-29, .cls-30, .cls-31, .cls-32, .cls-33, .cls-34, .cls-35, .cls-36, .cls-37, .cls-38, .cls-39, .cls-40, .cls-41, .cls-42, .cls-43, .cls-44, .cls-45 {
        stroke-width: 0px;
      }

      .cls-2 {
        fill: #7a6ea0;
      }

      .cls-3 {
        fill: #cfd7e4;
      }

      .cls-4 {
        fill: #02337c;
      }

      .cls-5 {
        fill: #2aabe7;
      }

      .cls-6 {
        fill: #03327e;
      }

      .cls-7 {
        fill: #1338a9;
      }

      .cls-8 {
        fill: #03327b;
      }

      .cls-9 {
        fill: #f9ae8b;
      }

      .cls-10 {
        fill: #ed8174;
      }

      .cls-11 {
        fill: #11aae9;
      }

      .cls-13 {
        fill: #f5b08f;
      }

      .cls-14 {
        fill: #03327c;
      }

      .cls-15 {
        fill: #f88372;
      }

      .cls-16 {
        fill: #f9fcfb;
      }

      .cls-17 {
        fill: #00327b;
      }

      .cls-18 {
        fill: #00aced;
      }

      .cls-19 {
        fill: #05aced;
      }

      .cls-20 {
        fill: #000001;
      }

      .cls-21 {
        fill: #6d5b81;
      }

      .cls-22 {
        fill: #001c5a;
      }

      .cls-23 {
        fill: #133dac;
      }

      .cls-24 {
        fill: #382868;
      }

      .cls-25 {
        fill: #fab08c;
      }

      .cls-26 {
        fill: #f6af8e;
      }

      .cls-27 {
        fill: #02337d;
      }

      .cls-28 {
        fill: #0c141e;
      }

      .cls-29 {
        fill: #143faa;
      }

      .cls-30 {
        fill: #05337d;
      }

      .cls-31 {
        fill: #f2ae93;
      }

      .cls-32 {
        fill: #06347d;
      }

      .cls-33 {
        fill: #003580;
      }

      .cls-34 {
        fill: #03327d;
      }

      .cls-35 {
        fill: #fbfbfc;
      }

      .cls-36 {
        fill: #fdfdfd;
      }

      .cls-37 {
        fill: #10acec;
      }

      .cls-38 {
        fill: #f8ac8b;
      }

      .cls-39 {
        fill: #f7b08d;
      }

      .cls-40 {
        fill: #00337c;
      }

      .cls-41 {
        fill: #f9ad8c;
      }

      .cls-42 {
        fill: #fcfcfc;
      }

      .cls-43 {
        fill: #eaf2f6;
      }

      .cls-44 {
        fill: #05acec;
      }

      .cls-45 {
        fill: #f8b08c;
      }
    </style>
  </defs>
  <path class="cls-1" d="m131.51,32.53c-2.34-.04-4.69-.06-7.03,0-.18,0-.4.07-.42-.24-.02-.27.13-.33.34-.36.54-.08.74-.46.83-.94.06-.34.09-.69.09-1.04,0-2.95,0-5.9,0-8.86,0-.17,0-.35-.04-.52-.19-1.22-1.15-1.68-2.24-1.06-.67.38-1.07.95-1.07,1.74,0,2.99,0,5.97,0,8.96,0,.24.06.48.09.73.06.52.32.88.85,1,.21.05.36.1.33.36-.03.27-.22.24-.39.23-2.34-.07-4.69-.05-7.03,0-.17,0-.36.03-.38-.24-.03-.27.13-.3.34-.34.83-.2,1.11-.52,1.15-1.38.03-.68.03-1.36.03-2.04,0-4.87,0-9.75-.01-14.62,0-.33-.03-.66-.11-.98-.14-.58-.46-.98-1.08-1.06-.26-.03-.31-.14-.31-.37,0-.26.17-.27.35-.25,1.96.2,3.91.01,5.85-.26.49-.07.32.25.32.44,0,2.57,0,5.14,0,7.7,0,.17,0,.34,0,.63.55-.67,1.09-1.18,1.79-1.47,1.44-.57,2.93-.67,4.42-.24,1.35.4,2,1.46,2.09,3.12.15,2.74.04,5.48.07,8.22,0,.31,0,.63,0,.94.04,1.14.21,1.35,1.28,1.65.08.2.05.38-.12.53Z"/>
  <path class="cls-1" d="m80.89,18.46c0-1.67.05-3.25-.02-4.82-.03-.85-.24-1.7-1.36-1.8-.23-.02-.17-.23-.18-.37,0-.19.11-.24.27-.23.44.03.87.07,1.31.07,1.51.02,3.01-.06,4.49-.31.46-.08.53.06.53.47-.01,4.98,0,9.96,0,14.94,0,1.19,0,2.38,0,3.56,0,.44.1.87.27,1.27.16.38.48.59.88.67.2.04.44.03.38.36-.06.32-.29.24-.49.24-1.47-.02-2.94-.07-4.4.1-.42.05-.84.08-1.24.17-.38.09-.46-.04-.44-.38.02-.42,0-.83,0-1.37-.23.3-.38.52-.55.73-.61.74-1.4,1.12-2.36,1.18-3.19.2-5.14-1.7-5.78-4.51-.53-2.29-.54-4.61.25-6.86.79-2.26,2.72-3.65,5.12-3.74,1.13-.04,2.23.03,3.32.63Z"/>
  <path class="cls-17" d="m158.32,19.87c1.5-2.18,4.67-2.42,6.28-1.51,1.21.69,1.94,1.77,2.31,3.06.7,2.46.67,4.94-.08,7.38-.84,2.74-2.88,4.19-5.76,4.22-.92,0-1.81-.1-2.75-.48.04,1.1-.11,2.16.13,3.2.18.76.82,1.18,1.84,1.27.22.02.46-.05.44.33-.02.39-.28.3-.48.29-2.29-.12-4.58-.12-6.88-.07-.4,0-.8.05-1.2.07-.19,0-.39.04-.38-.27,0-.23.03-.32.3-.35.82-.12,1.12-.45,1.19-1.27.05-.61.06-1.22.06-1.83,0-4.11,0-8.21,0-12.32,0-.54-.01-1.08-.15-1.61-.15-.58-.47-.99-1.08-1.06-.31-.04-.31-.19-.31-.41,0-.31.21-.2.37-.19,1.87.11,3.74.05,5.6-.26.45-.07.64,0,.58.49-.05.39,0,.79,0,1.32Z"/>
  <path class="cls-17" d="m175.44,19.82c1.48-1.94,3.47-2.12,5.57-1.86,1.74.21,2.7,1.45,2.73,3.52.04,2.76.02,5.52.03,8.28,0,.37.03.73.08,1.1.09.73.41,1.06,1.14,1.13.27.03.35.11.35.37,0,.33-.21.26-.39.25-1.66-.08-3.32-.14-4.98-.08-.68.02-1.36.06-2.04.08-.16,0-.4.11-.42-.22,0-.24.03-.38.33-.4.57-.05.79-.47.86-.97.05-.33.06-.66.06-.99,0-2.97,0-5.94,0-8.91,0-1.21-.39-1.76-1.28-1.8-1-.04-2.01.82-2.02,1.81-.02,3.16-.02,6.32,0,9.49,0,.69.19,1.34,1.09,1.4.25.02.13.24.15.38.03.24-.14.24-.3.23-.66-.03-1.33-.07-1.99-.09-1.66-.05-3.32,0-4.98.07-.19,0-.51.21-.56-.24-.04-.39.22-.35.46-.38.54-.08.89-.37.99-.93.03-.21.08-.41.08-.62,0-3.23,0-6.46,0-9.69,0-.28-.05-.56-.12-.83-.15-.57-.47-.98-1.11-1.03-.28-.02-.29-.16-.3-.38-.01-.28.17-.26.34-.24,2,.17,3.98.03,5.96-.28.29-.05.28.09.27.28,0,.48,0,.97,0,1.55Z"/>
  <path class="cls-17" d="m131.51,32.53c.05-.17,0-.37.12-.53.79-.14,1.21-.72,1.6-1.33.66-1.04,1.02-2.21,1.46-3.35,1.79-4.58,3.57-9.15,5.34-13.74.16-.43.35-.61.82-.53.64.1,1.29.07,1.94-.01.32-.04.46.08.57.37,1.93,5,3.88,10,5.82,15,.31.8.62,1.59.96,2.37.23.52.58.97,1.13,1.19.26.1.31.25.27.48-.04.28-.27.17-.42.17-1.26-.02-2.52-.08-3.78-.08-1.68,0-3.36.05-5.04.07-.18,0-.47.18-.5-.24-.02-.37.22-.33.43-.35,1.53-.16,1.78-.56,1.26-2.02-.52-1.48-1.07-2.95-1.59-4.43-.1-.29-.26-.35-.54-.35-1.61.01-3.22,0-4.83,0-.18,0-.33,0-.41.22-.52,1.42-1.16,2.8-1.27,4.34-.09,1.34.46,2.03,1.8,2.2.14.02.28.05.42.05.25-.01.27.12.28.32.02.27-.13.27-.32.26-1.01-.03-2.03-.08-3.04-.08-.66,0-1.33.05-1.99.06-.16,0-.35.09-.49-.07Z"/>
  <path class="cls-1" d="m55.95,27.61c.7-1.97,1.37-3.84,2.03-5.71.53-1.51,1.13-3,1.42-4.59.12-.68.13-1.36.04-2.03-.11-.88-.81-1.5-1.74-1.63-.22-.03-.47.02-.45-.34.02-.39.3-.28.49-.27,1.4.06,2.8.12,4.2.07.23,0,.45-.03.68-.05.15-.01.34-.1.39.12.04.16.08.36-.1.48-1.78,1.17-2.38,3.07-3.04,4.94-1.33,3.77-2.69,7.53-4.03,11.29-.28.77-.56,1.54-.81,2.32-.1.31-.24.44-.59.43-.7-.03-1.4-.03-2.1,0-.31.01-.47-.09-.58-.37-.92-2.22-1.86-4.44-2.79-6.66-1.44-3.43-2.87-6.85-4.32-10.28-.29-.7-.64-1.37-1.42-1.67-.23-.09-.18-.28-.16-.44.02-.2.18-.18.32-.18,1.01.02,2.03.06,3.04.07,1.87.02,3.74.06,5.61-.07.14,0,.28,0,.42,0,.2,0,.29.08.28.28,0,.18-.04.31-.25.32-.19.01-.39.01-.58.04-1,.15-1.29.59-1,1.57.37,1.2.92,2.34,1.38,3.5,1.09,2.72,2.19,5.43,3.3,8.15.08.21.19.41.34.73Z"/>
  <path class="cls-17" d="m193.57,30.84c-.24.29-.42.52-.63.73-1.26,1.33-3.59,1.7-5.18.79-1.19-.68-1.61-1.76-1.63-3.08-.02-1.37.64-2.32,1.78-2.98,1.16-.68,2.46-.97,3.71-1.43.23-.08.45-.18.68-.28.84-.36,1.3-.93,1.21-1.91-.08-.85.08-1.71-.08-2.56-.31-1.62-1.91-2.23-3.28-1.24.1.16.28.18.43.26,1.01.58,1.5,1.7,1.22,2.82-.24.97-1.19,1.69-2.3,1.75-1.17.06-1.94-.35-2.37-1.27-.45-.97-.27-2.16.47-2.92.77-.79,1.74-1.21,2.81-1.41,1.72-.33,3.44-.38,5.15.02,1.83.42,2.77,1.57,2.88,3.43.09,1.41.03,2.83.05,4.24.02,1.73,0,3.46.04,5.19.02.78.27.89.94.5.14-.08.27-.24.43.01.14.23.12.37-.11.51-1.34.81-2.79.95-4.3.72-1.13-.17-1.69-.71-1.94-1.9Z"/>
  <path class="cls-1" d="m6.89,44.41c-.72-.75-1.46-1.48-2.08-2.32-2.34-3.18-3.89-6.67-4.29-10.64-.45-4.56.58-8.76,3.04-12.62.07-.1.14-.2.22-.29.09-.11.22-.12.33-.05.13.08.11.21.04.32-.18.32-.38.63-.56.95-1.26,2.23-2.01,4.63-2.31,7.17-.01.09-.01.17-.01.26,0,.07.01.14.03.35.41-1.71.9-3.25,1.6-4.71.98-2.05,2.22-3.92,3.7-5.63.46-.53.95-1.03,1.44-1.52.3-.31.66-.5,1.13-.45.47.05.78.3.95.71.17.42.05.78-.28,1.09-1.49,1.37-2.78,2.9-3.87,4.6-1.52,2.36-2.6,4.9-2.98,7.7-.32,2.29-.13,4.55.57,6.76-.04-.82-.18-1.64-.22-2.46-.11-2.15.16-4.24.81-6.29.04-.14.05-.43.3-.32.2.08.1.32.05.47-.54,1.74-.69,3.52-.61,5.33.22,5.32,2.52,9.54,6.84,12.65,2.16,1.56,4.67,2.27,7.26,2.67,2.57.4,5.16.44,7.71-.2,5.24-1.31,9.37-4.11,11.85-9.03.84-1.67,1.28-3.46,1.33-5.34,0-.05,0-.11,0-.16.01-.13-.01-.32.19-.3.17.01.12.19.12.3.02.75-.03,1.5-.17,2.24-.88,4.9-3.72,8.41-7.89,10.94-2.56,1.56-5.35,2.5-8.35,2.7-5.52.36-10.72-.78-15.44-3.69-3.19-1.97-5.41-4.8-6.83-8.27-.06-.16-.2-.38-.01-.47.25-.12.36.12.44.32.54,1.26,1.24,2.42,2.03,3.53.95,1.32,2.48,2.83,3.9,3.7Z"/>
  <path class="cls-1" d="m97.48,24.11c-1.05,0-2.1,0-3.15,0-.18,0-.41-.05-.42.25-.02,1.27-.04,2.54.48,3.76.8,1.88,2.69,2.23,4.29,1.5.58-.27,1.05-.69,1.46-1.17.15-.18.29-.38.56-.22.3.18.08.4,0,.58-.62,1.59-1.57,2.92-3.15,3.69-1.23.6-2.53.61-3.84.4-3.08-.51-4.55-2.64-4.93-5.57-.23-1.74-.2-3.48.38-5.17.87-2.54,2.92-3.91,5.48-4.22.87-.1,1.74-.11,2.6.08,1.97.43,3.27,1.76,3.6,3.74.1.62.19,1.24.22,1.87.02.41-.12.5-.5.49-1.03-.02-2.06,0-3.1,0Z"/>
  <path class="cls-1" d="m108.37,33.04c-.98-.03-1.97-.22-2.87-.74-.24-.14-.5-.24-.76-.34-.57-.21-.88-.07-1.14.48-.04.08-.07.16-.1.24-.09.22-.29.15-.45.15-.21-.01-.18-.18-.17-.32.14-1.64.08-3.28.1-4.92,0-.17.02-.31.24-.31.21,0,.34.02.38.3.16,1.09.43,2.16,1.03,3.1.39.61.86,1.15,1.56,1.42.73.28,1.48.38,2.13-.16.66-.55.48-1.3.36-2-.09-.52-.4-.97-.78-1.34-1.12-1.1-2.26-2.19-3.37-3.3-.87-.88-1.49-1.89-1.56-3.17-.1-1.67.9-3.08,2.63-3.76,2.07-.8,4.11-.62,6.11.25.64.28.84.23,1.07-.4.08-.23.19-.37.44-.34.29.04.23.28.21.45-.14,1.36-.05,2.72-.1,4.08,0,.19.09.44-.25.47-.33.03-.34-.17-.39-.42-.19-1-.47-1.96-1.1-2.8-.65-.87-1.53-1.2-2.57-1.08-1.1.12-1.62,1.35-1.07,2.5.33.69.9,1.19,1.49,1.67,1.13.91,2.3,1.77,3.3,2.83,1.13,1.19,1.63,2.6,1.15,4.23-.4,1.36-1.42,2.16-2.67,2.7-.89.38-1.85.51-2.86.53Z"/>
  <path class="cls-1" d="m69.03,24.43c0,1.9,0,3.81,0,5.71,0,1.24.16,1.46,1.36,1.84.19.06.2.16.2.31,0,.22-.13.26-.31.26-.7-.01-1.4-.04-2.1-.04-1.7,0-3.39.02-5.09.03-.12,0-.24,0-.37,0-.2,0-.27-.12-.28-.3-.01-.18.09-.22.25-.26,1.04-.28,1.28-.54,1.29-1.59.02-3.27.02-6.53-.01-9.8,0-.83-.23-1.62-1.25-1.79-.21-.04-.23-.17-.22-.35.01-.24.18-.21.34-.21.91,0,1.82.01,2.73,0,1-.01,1.99-.11,2.97-.28.41-.07.51.03.51.43-.02,2.01,0,4.02,0,6.02h0Z"/>
  <path class="cls-17" d="m30.91.95c-.02.4-.14.69-.29.96-.41.77-.97,1.4-1.67,1.92-3.29,2.39-6.58,4.79-9.98,7.03-1.26.83-2.69,1.4-4.06,2.05-.45.22-.73.47-.76,1-.02.33-.12.65-.19.97-.04.15-.08.31-.29.33-.16.02-.28-.05-.34-.19-.45-1.1-1.43-1.3-2.44-1.49-.69-.13-1.36-.33-2.04-.48-.37-.08-.39-.22-.15-.48.22-.25.44-.45.83-.46,1-.02,1.99-.12,2.98-.16.38-.02.69-.14.98-.4,2.67-2.34,5.33-4.68,8.03-6.98,1.42-1.21,2.95-2.29,4.48-3.36.34-.23.72-.44,1.11-.44,1.04.01,2.04-.24,3.07-.27.34-.01.74-.02.72.45Z"/>
  <path class="cls-17" d="m30.98,33.78c-.02.43.08.69.61.64.34-.04.63.14.68.52.24,2.02.63,4.03.4,6.09-.1.2-.3.22-.49.26-1.19.21-2.4.25-3.6.17-.8-.06-.93-.23-1-1.04-.13-1.56-.14-3.13-.21-4.69,0-.19.02-.38-.08-.59-.21-.01-.29.31-.52.23-.32-.77-.28-1.59-.35-2.39.05.65.02,1.31.2,1.94.2.75.23,1.51.21,2.28-.02.68.05,1.36-.04,2.04-.29.3-.67.29-1.04.29-.35-1.48-.86-2.92-.91-4.47-.04-1.41-.47-2.77-.72-4.15-.05-.27-.1-.54-.15-.82-.24-.24-.14-.55-.16-.84.02-.38-.01-.76.06-1.14-.05.27-.06.55-.13.82-.17.4-.46.45-.83.29-.07-.07-.09-.16-.09-.25,0-.05,0-.13.05-.14.61-.25.59-.8.63-1.31.04-.55.18-1.11.02-1.67-.01-.05-.02-.12,0-.15.5-.64.22-1.38.29-2.07.02-.22,0-.45.23-.7.25.47.33.93.25,1.39-.16.9,0,1.77.16,2.65.06.32.22.54.56.49.65-.09,1.28.03,1.93.1.61.07,1.22.06,1.72-.39.28.24.13.54.15.83.01.27-.12.61.3.72.26,0,.54-.04.76.15.69.12.82.32.62.93.06.11.06.2-.08.25-.23-.15-.28-.42-.42-.62-.32-.39-.82-.28-1.15.25-.14.97-.37,1.92-.31,2.91.03.44.11.87.12,1.3,0,.22.12.36.35.38.47.03.94.02,1.42,0,.21-.01.3-.15.37-.32.05-.08.09-.15.2-.13Z"/>
  <path class="cls-1" d="m28.67,27.16c-.47.86-1.28.59-1.96.5-.59-.08-1.17-.14-1.76-.07-.38.05-.59-.08-.64-.48-.13-.95-.38-1.88-.18-2.85.08-.4-.06-.79-.2-1.18,0,.65.02,1.29-.01,1.94,0,.21.14.55-.28.61-.09.01-.04.11-.02.17.3.89-.07,1.75-.11,2.63-.02.48-.43.34-.65.5-.36-.2-.21-.56-.21-.84,0-.63-.04-1.22-.51-1.7-.55-1.83-1.16-3.64-.7-5.59.04-.19-.21.02-.2-.13-.18-.56.03-1.09.07-1.64.05-.16.06-.33.1-.49.06-.21.15-.39.42-.29.65.24.94.73.96,1.4.01.52,0,1.04,0,1.65.55-.6,1.17-1,1.77-1.42.04.04.06.08.07.13-.02.29-.24.5-.33.76-.17.49-.06.95.35,1.31.43.38.76.41,1.28.14.6-.36,1.21-.65,1.96-.47.43.1.64-.12.71-.55.03-.18,0-.39.15-.53.58.34.43.96.51,1.46.31,1.98.3,3.99.42,5.99-.37.37-.52,0-.64-.23-.19-.37-.26-.79-.32-1.21-.12-.84-.26-1.67-.37-2.52-.06-.45.12-.9.04-1.23-.13,1.08.07,2.26.29,3.43-.04.26.12.54-.05.8Z"/>
  <path class="cls-17" d="m21.85,18.24c-.47.07-.19.55-.41.76-.15-.09-.09-.28-.24-.46-.1,1.43-.47,2.77-.47,4.15,0,.75-.07,1.5-.28,2.23-.36,1.23-1.21,2.06-2.75,1.85-.69-.1-1.06-.62-1.46-1.11-.11-.13-.14-.33-.36-.35-.05-.03-.09-.07-.11-.12-.32-2.08-.58-4.16.09-6.23.1-.3.19-.59.4-.84.31-.61.91-.63,1.48-.72-.48-1.07-.45-1.25.25-1.69.24.1.12.29.1.45-.08.75.23,1.14.99,1.22.64.07,1.27.2,1.9.28.42,0,.72.18.86.59Z"/>
  <path class="cls-17" d="m16.92,34.62c-.63,0-.68-.07-.58-.71.07-.43.09-.86.08-1.29-.03-1.33,0-2.66-.1-3.98.1-.26.32-.22.53-.2,1.35.11,2.68.04,4.01-.21.53-.1,1.07-.12,1.61-.15.28.58.27,1.21.36,1.83.01.2-.14.37-.07.58.06.52-.05,1.03-.13,1.54-.06.36-.09.71,0,1.08.16.65-.05.99-.7,1.21-.62.2-1.23.24-1.85,0-.47-.13-.41-.53-.38-.86.07-.66,0-1.32.02-1.98,0-.1.08-.28-.12-.27-.15,0-.16.15-.15.28.09.87,0,1.73-.01,2.6,0,.43-.12.61-.55.57-.67.24-1.33.03-1.99-.03Z"/>
  <path class="cls-17" d="m10.43,40.81c-.14-1.59.07-3.16.24-4.73.04-.36.11-.72.14-1.09.04-.52.3-.74.81-.73.15,0,.31-.06.46-.09.05-.04.1-.06.16-.07.62.05,1.23-.12,1.86-.08.26.01.34-.16.38-.39.05-.32.03-.66.24-.94.25.05.14.21.12.35-.03.35-.15.72-.06,1.03.12.39.64.07.9.32.14.24.15.49.13.76-.11,1.55-.19,3.09-.2,4.64,0,.07,0,.14,0,.21-.04,1.05-.2,1.15-1.22,1.27-1.11.13-2.19,0-3.28-.14-.26-.03-.52-.08-.67-.34Z"/>
  <path class="cls-1" d="m66.4,15.74c-.53-.04-.98-.07-1.42-.19-1.11-.32-1.69-1.03-1.72-2.1-.03-1.2.49-1.97,1.63-2.32.95-.29,1.94-.31,2.89.02,1.16.4,1.65,1.2,1.56,2.42-.08,1.06-.74,1.8-1.87,2.04-.37.08-.76.1-1.07.14Z"/>
  <path class="cls-17" d="m28.79,20.66c0,.16.01.31,0,.47-.02.59-.28.91-.84.77-.78-.2-1.37.13-1.99.46-.56.06-1.11,0-1.43-.53-.31-.52-.27-1.07.06-1.58.09-.14.1-.29.15-.44.13-.49.16-.98-.02-1.48-.12-.33-.07-.69-.01-1.03.03-.17.06-.34.04-.52-.01-.11-.04-.22-.15-.25-.12-.03-.19.06-.25.15-.11.16-.17.34-.28.5-.1.15-.14.37-.41.32.1-.39.17-.79.31-1.15.27-.67.7-.88,1.42-.76.05,0,.1.03.15.03,1.4-.02,1.74,1.11,1.99,2.19.09.39.13.7.55.9.39.18.49.6.48,1.03,0,.33-.05.67.23.93Z"/>
  <path class="cls-17" d="m20.39,4.84c-.98.84-1.88,1.61-2.77,2.39-.13.12-.28.11-.44.09-3.46-.38-6.91-.75-10.37-1.13-.13-.01-.32.02-.34-.16-.02-.17.17-.18.29-.25.42-.26.87-.3,1.35-.32,3.98-.19,7.96-.41,11.94-.61.07,0,.14,0,.34,0Z"/>
  <path class="cls-34" d="m151.6,49.27c-.61.16-1.17.11-1.71.18-.37.05,0-.42-.25-.58-.29.29-.61.61-1.11.66-1.14.14-2.04-.42-2.35-1.53-.21-.75-.21-1.51-.08-2.28.24-1.49,1.92-2.67,3.62-1.6,0-.71,0-1.4,0-2.09,0-.53-.41-.65-.8-.85.57-.09,1.13-.06,1.68-.16.25-.04.14.26.15.41,0,1.92,0,3.84,0,5.76,0,.21,0,.42,0,.63,0,.63-.14,1.33.86,1.46Z"/>
  <path class="cls-34" d="m169.72,49.36h-2.46c0-.07,0-.13,0-.13.61-.14.68-.58.66-1.11-.03-.98,0-1.96-.01-2.93,0-.43,0-.91-.55-1.07-.53-.16-.96.05-1.31.43-.36.39-.47.89-.48,1.41-.01.65,0,1.29,0,1.94q0,.95.71,1.38c0,.09-.07.11-.14.11-.7,0-1.4,0-2.1,0-.09,0-.23.05-.25-.1-.02-.16.14-.14.22-.15.54-.08.58-.48.58-.9,0-1.96,0-3.91,0-5.87,0-.47-.06-.93-.66-1.03-.09-.01-.17-.04-.14-.16.02-.1.11-.07.17-.07.47,0,.94.02,1.41-.08.32-.07.2.22.2.35.01,1.1,0,2.19,0,3.41.47-.7,1.01-1.08,1.77-1.08,1.04,0,1.55.47,1.57,1.52.02.86,0,1.71,0,2.57q0,1.04.79,1.56Z"/>
  <path class="cls-14" d="m112.82,49.32c.58-.29.32-.58.11-.87-.31-.44-.61-.9-.92-1.34-.11-.15-.24-.3-.38-.43-.1-.09-.24-.16-.39-.1-.14.07-.07.21-.07.33,0,.3,0,.59,0,.89,0,.6-.18,1.3.71,1.42-.02.16-.09.17-.16.17-.7,0-1.4,0-2.1,0-.09,0-.23.05-.25-.11-.02-.13.1-.12.18-.13.56-.07.63-.46.63-.91,0-1.96,0-3.91,0-5.87,0-.48-.04-.97-.69-1.04-.08,0-.13-.05-.12-.13.01-.09.07-.1.15-.1.49.02.97,0,1.46-.08.3-.05.17.24.17.38.01,1.45,0,2.9.01,4.35,0,.16-.1.38.08.48.18.1.38-.03.53-.14.48-.38.91-.82,1.28-1.31.27-.35.15-.53-.35-.66-.1-.02-.29.05-.28-.14.01-.18.19-.12.29-.12.54.02,1.08.08,1.62,0,.08-.01.19-.02.22.08.04.12-.06.15-.14.17-.9.28-1.3,1.12-1.95,1.69-.18.15-.06.27.03.4.61.83,1.21,1.67,1.82,2.49.13.18.29.35.52.42.08.03.17.08.15.18-.02.12-.13.1-.21.1-.61,0-1.22,0-1.83,0-.04-.03-.09-.05-.13-.08Z"/>
  <path class="cls-34" d="m134.9,45.18c-.5,1.4-.93,2.65-1.38,3.89-.05.14-.04.36-.22.38-.24.02-.22-.24-.27-.38-.54-1.43-1.07-2.87-1.61-4.31-.09-.24-.17-.5-.45-.6-.12-.04-.2-.09-.15-.22.04-.11.14-.06.22-.05.61.07,1.22.04,1.83-.03.1-.01.24-.04.26.1.02.14-.12.16-.22.16-.54.02-.59.32-.44.75.36,1.02.71,2.03,1.1,3.16.48-1.33.92-2.55,1.38-3.76.06-.16.03-.43.3-.43.26,0,.23.27.29.43.48,1.23.95,2.46,1.48,3.85.38-1.2.73-2.26,1.05-3.32.11-.36-.05-.61-.46-.66-.1-.01-.29.02-.28-.15.01-.22.22-.13.33-.13.38.01.77.05,1.15,0,.08-.01.19-.02.23.07.06.14-.06.17-.16.22-.32.14-.43.43-.53.74-.48,1.42-.96,2.84-1.45,4.25-.04.13-.03.31-.21.32-.18,0-.18-.19-.23-.31-.51-1.27-1.01-2.55-1.57-3.97Z"/>
  <path class="cls-27" d="m125.21,48.18c0-.35,0-.7,0-1.05,0-.1-.03-.23.12-.24.16,0,.14.13.16.22.05.36.12.72.26,1.06.3.74.85,1.12,1.6,1.13.57,0,1.04-.18,1.3-.71.26-.54.21-1.08-.15-1.58-.26-.36-.63-.59-1-.84-.47-.31-.95-.59-1.39-.93-.92-.7-1.18-1.88-.64-2.73.54-.85,1.86-1.13,2.86-.6.09.05.19.1.28.15.23.14.43.17.5-.16.03-.13.1-.18.22-.15.12.03.09.13.08.21-.01.58-.03,1.15-.04,1.73,0,.1.03.22-.13.24-.16.02-.15-.11-.17-.21-.07-.34-.15-.68-.32-.99-.45-.81-1.5-1.1-2.19-.61-.62.44-.7,1.34-.16,1.93.36.4.84.63,1.27.91.47.3.95.59,1.37.96.71.62.9,1.4.63,2.27-.27.88-.97,1.23-1.83,1.33-.64.07-1.25,0-1.81-.35-.26-.16-.49-.25-.59.15-.02.09-.05.17-.17.14-.12-.03-.1-.12-.1-.2,0-.37,0-.73,0-1.1.01,0,.02,0,.03,0Z"/>
  <path class="cls-1" d="m10.43,40.81c1.11.35,2.26.38,3.41.35.19,0,.38-.03.57-.04.94-.03.98-.06,1.02-1.03.08-1.9.16-3.79.24-5.69.44.32.64.75.63,1.29-.05,1.92-.1,3.83-.14,5.75,0,.52-.18.84-.74.96-1.11.24-2.21.2-3.33.12-.05,0-.1-.03-.15-.03-1.36-.06-1.3-.06-1.52-1.68Z"/>
  <path class="cls-19" d="m26.82,35.34c.24-.18.25-.54.61-.69.03.28.08.53.09.79.08,1.71.16,3.42.21,5.12.01.45.15.67.62.71,1.45.12,2.89.06,4.32-.25.06.36-.09.68-.15,1.02-.04.27-.22.48-.52.52-1.33.16-2.65.29-3.99.06-.68-.12-1.11-.36-1.06-1.11-.17-.3-.05-.63-.09-.95,0-.06,0-.12,0-.19-.15-.44-.06-.89-.05-1.34.03-1.11-.07-2.21-.06-3.32,0-.14-.05-.28.09-.38Z"/>
  <path class="cls-34" d="m143.05,48.63c-.48.6-1.01.89-1.69.86-.65-.03-1.1-.35-1.27-.91-.19-.65.02-1.24.56-1.61.46-.31.99-.43,1.5-.61.9-.31,1.22-1.14.78-1.98-.25-.47-1.37-.6-1.74-.22-.16.16,0,.19.08.27.29.31.38.66.06.97-.25.25-.59.23-.86,0-.29-.23-.27-.72.01-1.04.6-.68,2.22-.89,2.97-.37.47.32.57.81.58,1.33,0,1.05,0,2.1,0,3.14,0,.63.07.68.66.5.09-.03.17-.07.23.02.06.1-.02.15-.09.21-.59.5-1.74.37-1.78-.57Z"/>
  <path class="cls-4" d="m98.89,49.23c1.15-.06.96-.84.96-1.52,0-1.52,0-3.04,0-4.55,0-.95,0-.95-.84-1.19-.01-.19.13-.18.25-.17.72.04,1.43.05,2.15,0,.11,0,.29-.06.31.1.03.19-.16.14-.26.15-.54.04-.57.44-.57.83-.01,1.24,0,2.48,0,3.72,0,.61,0,1.22,0,1.83,0,.46.2.72.7.7.37-.01.73,0,1.1,0,.95-.04,1.29-.33,1.5-1.28.03-.15.04-.31.06-.46.01-.11.06-.22.18-.22.16,0,.12.14.12.24.01.59.01,1.19.04,1.78,0,.15-.02.23-.18.23-1.79,0-3.58,0-5.38,0l-.12-.17Z"/>
  <path class="cls-30" d="m76.32,41.86c-.04.17-.13.18-.22.18-.48,0-.63.3-.65.71-.01.4,0,.8,0,1.21,0,1.41,0,2.83,0,4.24,0,.8.12.92.9.93.33,0,.67.02,1,0,.89-.08,1.18-.34,1.38-1.22.04-.17.06-.34.09-.51.02-.11.05-.23.17-.23.15,0,.13.13.13.23,0,.59.01,1.19.03,1.78,0,.15-.03.23-.19.23-1.79,0-3.58,0-5.38,0,.02-.11.02-.16.04-.17.83-.31.83-.3.84-1.22,0-1.57.03-3.14,0-4.72-.02-.95.22-1.02-.85-1.43h2.74Z"/>
  <path class="cls-18" d="m22.46,28.1c-.14.06-.28.16-.43.17-1.78.16-3.55.57-5.36.28-.13-.02-.24.02-.34.09-.29-.76-.13-1.53-.06-2.3.24-.08.3.13.4.25.69.85,1.62,1,2.61.79.95-.2,1.44-.91,1.66-1.82.11-.47.08-.97.27-1.43.29-.01.26.23.29.39.14.65.34,1.28.62,1.88.08.17.09.38.29.47.16.4.23.81.05,1.23Z"/>
  <path class="cls-6" d="m118.51,46.1c-.46,0-.91,0-1.37,0-.16,0-.31-.02-.33.22-.03.67-.01,1.33.34,1.93.63,1.06,1.91,1.12,2.64.12.03-.04.05-.09.09-.13.07-.08.1-.27.26-.16.13.09.03.22-.03.32-.3.6-.77.99-1.43,1.11-1.39.26-2.54-.48-2.85-1.89-.21-.94-.15-1.88.33-2.74.53-.96,1.59-1.39,2.65-1.11.87.23,1.51,1.21,1.39,2.1-.03.23-.15.23-.32.23-.46,0-.91,0-1.37,0Z"/>
  <path class="cls-6" d="m155.48,46.1c-.44,0-.88,0-1.31,0-.24,0-.38.03-.38.34,0,.62.02,1.22.33,1.78.62,1.1,1.92,1.18,2.66.15.02-.03.03-.06.06-.09.09-.08.09-.32.29-.2.13.09.02.22-.03.32-.3.6-.77.99-1.44,1.11-1.36.25-2.48-.45-2.82-1.8-.25-.98-.19-1.94.31-2.84.53-.96,1.59-1.39,2.65-1.1.87.24,1.51,1.22,1.38,2.1-.03.23-.16.23-.32.23-.46,0-.91,0-1.37,0Z"/>
  <path class="cls-27" d="m92.99,45.72c-.46,0-.91,0-1.37,0-.17,0-.31,0-.32.23-.03.67-.01,1.33.35,1.93.64,1.06,1.92,1.1,2.65.11.09-.12.1-.43.33-.27.18.12-.03.32-.1.46-.81,1.37-2.97,1.35-3.84-.02-.67-1.05-.62-2.86.1-3.88.56-.79,1.59-1.14,2.56-.85.8.24,1.27.91,1.33,1.87.02.35-.09.46-.43.44-.42-.03-.84,0-1.26,0Z"/>
  <path class="cls-22" d="m21.23,24.14c-.01.59-.07,1.18-.24,1.74-.27.9-.85,1.54-1.81,1.67-1.04.15-2.03.02-2.69-.96-.06-.09-.08-.24-.23-.26-.07-.23-.14-.46-.21-.7-.08-.11-.21-.2-.09-.36,0-.07,0-.16.03-.2.11-.1.15.03.17.09.06.31.31.5.47.74.54.78,1.34.88,2.14.69.77-.18,1.26-.79,1.49-1.54.23-.71.33-1.45.32-2.2-.03-1.19.23-2.34.39-3.5.04-.31-.02-.63.13-.92.05-.11.06-.26.23-.22.13.03.09.17.09.27,0,.17,0,.35,0,.52-.04.55-.08,1.11-.13,1.66.1.57-.01,1.13,0,1.7.01.4.06.79.06,1.19,0,.21.01.42-.15.58Z"/>
  <path class="cls-14" d="m158.84,48.38c0-.28,0-.56,0-.84,0-.1-.03-.22.12-.23.14,0,.17.09.18.2.05.38.12.76.29,1.11.25.53.68.76,1.28.69.46-.06.72-.33.81-.77.08-.43-.07-.79-.42-1.05-.48-.35-.97-.68-1.46-1.02-.41-.29-.74-.64-.8-1.17-.13-1.18,1.08-1.95,2.29-1.45.14.06.28.14.41.22.19.13.35.19.43-.1.03-.12.06-.25.23-.21.14.04.08.17.08.27,0,.42,0,.84-.01,1.26,0,.11.03.26-.15.28-.18.02-.17-.14-.21-.25-.08-.21-.14-.43-.24-.64-.13-.3-.36-.51-.66-.63-.49-.2-1.05-.06-1.26.31-.22.4-.11.85.35,1.19.52.38,1.07.72,1.6,1.1.39.28.7.64.78,1.13.14.82-.28,1.46-1.12,1.7-.62.18-1.24.17-1.82-.19-.14-.08-.29-.25-.43,0-.06.1-.08.26-.25.18-.11-.05-.06-.19-.06-.28,0-.26,0-.52,0-.78,0,0,.01,0,.02,0Z"/>
  <path class="cls-45" d="m21.84,34.71c-.05,1.62-.37,3.2-.64,4.79-.07.39-.14.79-.2,1.18-.33.22-.63.08-.92-.09,0-1.01,0-2.02.05-3.03.03-.62-.09-1.25-.14-1.87-.02-.26.02-.52.1-.77.55-.36,1.15-.33,1.76-.21Z"/>
  <path class="cls-8" d="m24.71,7.34c-.38,1.84-.73,3.56-1.08,5.27-.07.33-1.05.82-1.39.7-.17-.06-.23-.17-.1-.31.1-.1.21-.21.21-.35-.03-1.02.33-2.04-.05-3.05-.13-.36-.04-.59.3-.81.69-.43,1.35-.93,2.1-1.46Z"/>
  <path class="cls-27" d="m86.63,48.15c.44-1.17.84-2.23,1.23-3.29.14-.39.02-.64-.41-.72-.12-.02-.33.01-.3-.19.03-.16.2-.09.32-.09.38,0,.77,0,1.15,0,.09,0,.23-.05.25.11.01.1-.07.14-.15.18-.34.14-.45.46-.57.77-.53,1.4-1.06,2.8-1.61,4.2-.05.13-.03.36-.26.34-.17-.01-.17-.21-.22-.33-.56-1.33-1.11-2.67-1.68-4-.16-.37-.22-.83-.68-1.01-.04-.02-.07-.12-.07-.17,0-.09.09-.09.16-.09.65.04,1.29.04,1.94,0,.09,0,.19,0,.2.11.01.12-.09.12-.18.15-.63.2-.66.24-.42.85.41,1.02.82,2.03,1.29,3.19Z"/>
  <path class="cls-17" d="m18.58,14.81c0-.12.01-.24.02-.36.11-1.17.52-1.47,1.67-1.29.61.1,1.21.3,1.85.27.36-.02.45.19.37.51-.08.31-.31.49-.55.66-.49.08-.9.26-1.15.75-.13.26-.38.21-.5-.09-.04-.11-.02-.25-.23-.33-.17.54.25,1.31-.57,1.59-.9-.36-1.01-.56-.91-1.7Z"/>
  <path class="cls-1" d="m16.27,18.13c-.25.97-.53,1.93-.64,2.94-.12,1.13.13,2.22.19,3.32.01.29.04.59.06.88.1.17.02.35-.03.5-.24.65-.49,1.29-.68,1.96-.06.2-.18.37-.39.46-.18.04-.36.07-.49-.11.14-.98.31-1.96.42-2.94.16-1.38.28-2.77.43-4.15.09-.8.33-1.56.63-2.31.1-.24.22-.48.5-.56Z"/>
  <path class="cls-25" d="m17.24,39.77c-.18-.52-.13-1.07-.16-1.59-.05-.94-.31-1.88-.16-2.83.63-.17,1.23-.44,1.9-.42.03.39-.01.77-.13,1.13-.29.91-.32,1.84-.31,2.78,0,.28-.02.56-.09.83-.35,0-.7.06-1.05.1Z"/>
  <path class="cls-40" d="m105.79,49.34c0-.05,0-.08.02-.08.84-.15.82-.79.82-1.42-.01-.98-.02-1.95-.04-2.93,0-.39-.12-.73-.6-.78-.08,0-.19-.04-.18-.14.01-.15.14-.13.24-.12.51.07,1-.01,1.54-.11,0,1.38,0,2.74,0,4.1,0,.62-.15,1.34.93,1.35l-.13.13h-2.6Z"/>
  <path class="cls-8" d="m82.85,49.34h-2.58c1.01-.23.81-1.01.82-1.68,0-.91,0-1.81-.03-2.72-.01-.4-.1-.78-.62-.82-.08,0-.19-.04-.17-.15.02-.15.16-.12.25-.1.49.06.97,0,1.53-.12,0,.35,0,.68,0,1.02,0,1.01,0,2.02,0,3.03,0,.63-.18,1.38.93,1.4-.05.05-.09.09-.14.14Z"/>
  <path class="cls-9" d="m19.51,16.45c.32-.3.55-.62.34-1.09-.04-.09-.03-.2-.03-.31.01-.19.08-.35.3-.36.22,0,.3.13.29.34,0,.13-.08.31.1.36.22.06.24-.16.29-.29.22-.55.65-.58,1.14-.51-.07.49-.13,1-.23,1.48-.1.44-.35.93-.77,1.24-.61-.07-1.12-.29-1.42-.87Z"/>
  <path class="cls-41" d="m23.66,17.49c.33-.18.33-.55.5-.82.12-.2.24-.44.5-.37.27.07.28.35.24.57-.14.71-.12,1.4.12,2.09.1.28-.07.58-.13.86-.07.07-.15.13-.26.12-.01-.02-.03-.04-.04-.06.04-.32.05-.59-.42-.46-.43.11-.65-.06-.63-.55.01-.33.14-.67-.09-1-.1-.14.09-.28.22-.37Z"/>
  <path class="cls-44" d="m19.51,16.45c.4.41.93.62,1.42.87-.03.12,0,.23.06.33-.86.14-1.69-.1-2.51-.28-.41-.09-.64-.78-.54-1.24.03-.14.22-.26.06-.42.67,0,.43-.57.58-.9-.15.8.25,1.3.93,1.64Z"/>
  <path class="cls-12" d="m18.5,40.26c.17.72-.14,1.39-.38,2-.18.45-.78.27-1.23.22-.3-.03-.33-.2-.29-.43.16-.55.41-1.06.7-1.55.29-.5.75-.58,1.21-.25Z"/>
  <path class="cls-39" d="m14.29,28.09c.17,0,.34,0,.52,0,.18-.06.35-.14.52.02.03.3.12.58.29.83.43.64.4.76-.29,1.14-.06.03-.11.09-.16.13-.13-.03-.04-.17-.11-.22.05.09-.02.16-.03.23-.01.07-.07.12-.13.15-.7.05-1.07-.35-1.1-1.19.28-.43.35-.45,1.11-.32-.3-.08-.6-.08-.91-.03-.31.05-.66.14-.94-.12.1-.02.2-.07.29-.06.49.08.81-.08.94-.57Z"/>
  <path class="cls-20" d="m27,40.61c.01.3.03.6-.05.9-.05.13-.11.25-.14.38-.2.76-.55.97-1.31.78-.24-.06-.29-.2-.25-.42.16-.52.39-1,.68-1.46.29-.45.68-.51,1.08-.19Z"/>
  <path class="cls-37" d="m20.07,40.6c.31.03.61.06.92.09.31.45.22.99.3,1.49-.56.37-1.15.33-1.54-.11.03-.5.12-1,.32-1.46Z"/>
  <path class="cls-24" d="m13.06,28.72c.52,0,1.04,0,1.55,0,.3,0,.55.06.68.42-.49-.08-.99-.6-1.42.03-.9.1-1.02.73-1.08,1.47-.08.98-.22,1.96-.34,2.94-.03.22-.03.46-.24.6-.04,0-.09,0-.13,0,.16-1.4.33-2.8.49-4.21.02-.15.07-.33.02-.46-.2-.49.1-.66.47-.8Z"/>
  <path class="cls-32" d="m80.85,41.8c.04-.39.37-.66.75-.63.39.04.67.36.65.74-.03.38-.41.71-.79.66-.38-.05-.65-.39-.61-.77Z"/>
  <path class="cls-32" d="m107.05,41.17c.38-.01.7.28.72.67.02.38-.32.74-.71.74-.38,0-.68-.31-.68-.7,0-.4.28-.69.67-.71Z"/>
  <path class="cls-38" d="m22.77,30.48c-.09-.16-.07-.33-.05-.5.16-.26-.2-.65.21-.85.32.09.59.05.73-.3.24-.02.19.21.29.32,0,.3.02.6.03.91-.19.37-.49.44-.85.28-.18-.08-.32-.12-.35.14Z"/>
  <path class="cls-29" d="m28.66,26.45c-.33-1.27-.45-2.56-.23-3.87.08.68.02,1.37.13,2.06.15,1.02.29,2.05.57,3.04.07.25.13.64.59.43,0,.1,0,.21,0,.31-.19.17-.41.23-.65.12-.15-.14-.21-.33-.22-.52-.03-.53-.21-1.05-.19-1.58Z"/>
  <path class="cls-11" d="m18.5,40.26c-.59-.21-.87-.1-1.15.43-.25.46-.5.91-.75,1.37-.06-.31.04-.58.17-.85.23-.45.46-.91.46-1.43.32-.29.67-.33,1.05-.1.07.2.15.39.22.59Z"/>
  <path class="cls-15" d="m18.82,34.93c-.63.16-1.22.49-1.9.42,0-.24,0-.48,0-.72.67-.17,1.33.02,1.99.03,0,.11-.01.2-.09.28Z"/>
  <path class="cls-5" d="m27,40.61c-.54-.19-.78-.09-1.06.39-.24.41-.38.88-.7,1.25-.07-.35.1-.65.25-.94.2-.39.33-.8.38-1.24.19-.29.46-.27.75-.22.25.11.26.37.37.57,0,.06,0,.11.01.17Z"/>
  <path class="cls-10" d="m21.84,34.71c-.59.07-1.17.14-1.76.21,0-.2,0-.41.01-.61.62,0,1.23,0,1.85,0-.03.13-.07.26-.1.39Z"/>
  <path class="cls-23" d="m15.33,28.11c-.17,0-.35-.01-.52-.02.26-.24.28-.59.39-.9.22-.64.46-1.28.68-1.92.03,0,.06,0,.09,0,.03.12.06.24.09.36-.3.81-.65,1.59-.74,2.46Z"/>
  <path class="cls-2" d="m30.38,29.99c.03-.07.07-.14.1-.21.23,1,.27,2.02.41,3.03.05.32.06.65.09.98-.04.04-.08.08-.11.12-.19-.05-.21-.22-.23-.37-.15-1.03-.25-2.08-.39-3.11-.02-.16-.01-.32.13-.43Z"/>
  <path class="cls-26" d="m26.68,39.97c-.28-.02-.55-.02-.81.12-.12-.18-.14-.37-.12-.58.28-.17.58-.27.92-.2.18.22.17.44,0,.66Z"/>
  <path class="cls-21" d="m14.91,30.32c.04-.15.08-.3.12-.49.16.13.1.27.12.39-.15.94-.13,1.91-.33,2.85-.04-.1,0-.24-.1-.32-.11-.08-.15-.2-.13-.32.1-.7.01-1.43.32-2.1Z"/>
  <path class="cls-28" d="m19.75,42.06c.49.34,1.02.19,1.54.11.03.14.03.26-.16.32-.43.13-.85.12-1.27-.04-.2-.07-.27-.2-.11-.39Z"/>
  <path class="cls-31" d="m29.12,28.5c.2-.03.4-.05.6-.08.1.12.13.27.13.42-.29,0-.58,0-.87,0-.09-.16-.02-.27.13-.34Z"/>
  <path class="cls-36" d="m80.9,24.6c0,1.63,0,3.25,0,4.88,0,.79-.34,1.37-1.02,1.77-.87.51-1.74.22-2.15-.71-.4-.9-.53-1.85-.57-2.8-.09-2.18-.19-4.37.3-6.52.13-.56.33-1.1.65-1.59.57-.87,1.69-1.12,2.59-.59.25.15.2.34.2.54,0,1.68,0,3.36,0,5.03Z"/>
  <path class="cls-36" d="m162.09,25.3c.05,1.55.02,3.11-.41,4.62-.14.51-.35.98-.68,1.41-.57.73-1.52,1.03-2.39.75-.21-.07-.3-.17-.3-.41.01-3.46,0-6.92.02-10.38,0-.93.56-1.61,1.41-1.87.73-.22,1.31,0,1.66.69.49.95.61,2,.68,3.04.05.71,0,1.43,0,2.15Z"/>
  <path class="cls-36" d="m141.57,24.63h-5.11c.86-2.25,1.72-4.47,2.63-6.84.85,2.36,1.66,4.58,2.48,6.84Z"/>
  <path class="cls-42" d="m193.5,24.45c0,1.89,0,3.67,0,5.44,0,.4-.3.53-.59.63-.76.25-1.53-.15-1.71-.94-.28-1.22-.07-2.36.73-3.35.47-.58.99-1.13,1.57-1.79Z"/>
  <path class="cls-36" d="m95.43,23.57c-.47,0-.85-.01-1.24,0-.26.01-.4-.06-.37-.35.12-1.23.16-2.47.64-3.64.08-.21.2-.41.34-.58.57-.7,1.27-.61,1.63.21.36.81.43,1.68.52,2.55,0,.03,0,.07,0,.1,0,.54.24,1.22-.06,1.58-.31.37-1.02.06-1.47.13Z"/>
  <path class="cls-1" d="m30.2,40.39c-.19,0-.38,0-.57,0q-1.17-.02-1.22-1.17c-.01-.24-.01-.49-.01-.73,0-.23.12-.36.34-.39.92-.09,1.83-.2,2.76-.04.22.04.33.12.37.36.08.48.09.97.12,1.45.02.32-.14.45-.42.47-.45.03-.9.04-1.36.07,0,0,0,0,0-.01Z"/>
  <path class="cls-43" d="m22.92,29.14c-.2.25-.06.58-.21.85-.09-.63-.17-1.26-.26-1.88-.09-.41-.02-.85-.16-1.26-.13-.16-.17-.34-.09-.53.39.28.56.66.58,1.14.02.49-.06.99.09,1.48.02.07.03.14.05.21Z"/>
  <path class="cls-13" d="m30.07,29.37c-.35.55-.71.58-1.37.1.5-.6,1.13-.64,1.37-.1Z"/>
  <path class="cls-3" d="m23.94,29.16c-.1-.11-.19-.21-.29-.32-.04-.43.1-.84.29-1.26v1.58Z"/>
  <path class="cls-33" d="m22.2,26.32c.03.18.06.35.09.53-.42-.32-.48-.84-.65-1.28-.18-.46-.28-.95-.41-1.43,0-1.03,0-2.05,0-3.08,0-.14-.03-.28.09-.39.29-.03.23.18.2.33-.25,1.34.04,2.62.35,3.91.11.47.22.94.33,1.41Z"/>
  <path class="cls-7" d="m24.63,19.94c.09-.04.17-.08.26-.12-.09.42-.41.75-.41,1.21,0,.77.34,1.16,1.11,1.21.14,0,.28-.02.38.11-.46.37-.89.2-1.28-.1-.42-.32-.69-.73-.56-1.3.09-.38.32-.68.5-1.02Z"/>
  <path class="cls-1" d="m13.14,40.28c-.54-.04-1.08-.08-1.62-.11-.28-.01-.42-.15-.4-.43.04-.48.08-.97.11-1.45.02-.32.26-.4.51-.41.87-.03,1.74-.07,2.61.08.26.05.36.16.35.41,0,.21,0,.42,0,.63-.02,1.23-.06,1.26-1.3,1.27-.09,0-.17,0-.26,0v.02Z"/>
  <path class="cls-36" d="m149.72,46.46c0,.45,0,.91,0,1.36-.02.67-.47,1.27-1.02,1.36-.61.1-1.17-.23-1.39-.93-.34-1.07-.35-2.17,0-3.24.27-.83.94-1.19,1.66-.96.48.16.77.46.76,1,0,.47,0,.94,0,1.42Z"/>
  <path class="cls-35" d="m143.07,46.25c0,.61.02,1.16,0,1.72-.02.52-.39.81-.82.98-.35.14-.74.13-1.01-.19-.31-.37-.3-.81-.11-1.23.13-.3.37-.5.66-.64.41-.2.81-.39,1.29-.63Z"/>
  <path class="cls-42" d="m117.96,45.85c-.14,0-.28,0-.42,0-.82,0-.82,0-.57-.8.07-.21.17-.42.29-.61.24-.35.58-.57,1.03-.49.41.08.59.41.71.77.35,1.05.27,1.12-1.04,1.12Z"/>
  <path class="cls-42" d="m154.93,45.85c-.14,0-.28,0-.42,0-.8,0-.8,0-.58-.75.07-.25.17-.49.34-.7.26-.32.58-.52,1-.44.39.07.57.39.69.72.38,1.06.28,1.17-1.03,1.17Z"/>
  <path class="cls-16" d="m92.53,45.85c-.16,0-.31,0-.47,0-.73,0-.74,0-.56-.69.05-.18.11-.37.21-.53.24-.41.56-.73,1.08-.67.49.06.67.45.79.87.29,1.02.27,1.03-1.05,1.03Z"/>
</svg>